<mxfile host="65bd71144e">
    <diagram id="0X9xID7QJncj712uZ-_r" name="Page-1">
        <mxGraphModel dx="1212" dy="866" grid="1" gridSize="10" guides="1" tooltips="1" connect="1" arrows="1" fold="1" page="1" pageScale="1" pageWidth="850" pageHeight="1100" math="0" shadow="0">
            <root>
                <mxCell id="0"/>
                <mxCell id="1" parent="0"/>
                <mxCell id="2" value="" style="rounded=0;whiteSpace=wrap;html=1;" vertex="1" parent="1">
                    <mxGeometry x="160" y="230" width="660" height="550" as="geometry"/>
                </mxCell>
                <mxCell id="3" value="system de gesrtion de reservation&amp;nbsp;" style="text;html=1;strokeColor=none;fillColor=none;align=center;verticalAlign=middle;whiteSpace=wrap;rounded=0;" vertex="1" parent="1">
                    <mxGeometry x="395" y="230" width="190" height="30" as="geometry"/>
                </mxCell>
                <mxCell id="5" value="" style="ellipse;whiteSpace=wrap;html=1;" vertex="1" parent="1">
                    <mxGeometry x="225" y="320" width="120" height="80" as="geometry"/>
                </mxCell>
                <mxCell id="6" value="&lt;font style=&quot;font-size: 18px;&quot;&gt;consumter offires&lt;/font&gt;" style="text;html=1;strokeColor=none;fillColor=none;align=center;verticalAlign=middle;whiteSpace=wrap;rounded=0;" vertex="1" parent="1">
                    <mxGeometry x="240" y="337.5" width="90" height="45" as="geometry"/>
                </mxCell>
                <mxCell id="12" value="include" style="edgeStyle=none;html=1;exitX=1;exitY=0.5;exitDx=0;exitDy=0;fontSize=18;" edge="1" parent="1" source="7" target="9">
                    <mxGeometry relative="1" as="geometry"/>
                </mxCell>
                <mxCell id="7" value="" style="ellipse;whiteSpace=wrap;html=1;fontSize=18;" vertex="1" parent="1">
                    <mxGeometry x="440" y="320" width="120" height="80" as="geometry"/>
                </mxCell>
                <mxCell id="8" value="reserver une place" style="text;html=1;strokeColor=none;fillColor=none;align=center;verticalAlign=middle;whiteSpace=wrap;rounded=0;fontSize=18;" vertex="1" parent="1">
                    <mxGeometry x="470" y="345" width="60" height="30" as="geometry"/>
                </mxCell>
                <mxCell id="9" value="" style="ellipse;whiteSpace=wrap;html=1;fontSize=18;" vertex="1" parent="1">
                    <mxGeometry x="660" y="320" width="120" height="80" as="geometry"/>
                </mxCell>
                <mxCell id="10" value="remplire formule" style="text;html=1;strokeColor=none;fillColor=none;align=center;verticalAlign=middle;whiteSpace=wrap;rounded=0;fontSize=18;" vertex="1" parent="1">
                    <mxGeometry x="690" y="345" width="60" height="30" as="geometry"/>
                </mxCell>
                <mxCell id="11" value="extende" style="endArrow=classic;html=1;fontSize=18;entryX=1;entryY=0.5;entryDx=0;entryDy=0;" edge="1" parent="1" source="7" target="5">
                    <mxGeometry width="50" height="50" relative="1" as="geometry">
                        <mxPoint x="500" y="450" as="sourcePoint"/>
                        <mxPoint x="550" y="400" as="targetPoint"/>
                    </mxGeometry>
                </mxCell>
                <mxCell id="20" value="include" style="edgeStyle=none;html=1;exitX=1;exitY=0.5;exitDx=0;exitDy=0;fontSize=18;" edge="1" parent="1" source="13" target="15">
                    <mxGeometry relative="1" as="geometry"/>
                </mxCell>
                <mxCell id="13" value="" style="ellipse;whiteSpace=wrap;html=1;fontSize=18;" vertex="1" parent="1">
                    <mxGeometry x="305" y="465" width="120" height="80" as="geometry"/>
                </mxCell>
                <mxCell id="14" value="ajouter activites" style="text;html=1;strokeColor=none;fillColor=none;align=center;verticalAlign=middle;whiteSpace=wrap;rounded=0;fontSize=18;" vertex="1" parent="1">
                    <mxGeometry x="335" y="490" width="60" height="30" as="geometry"/>
                </mxCell>
                <mxCell id="15" value="" style="ellipse;whiteSpace=wrap;html=1;fontSize=18;" vertex="1" parent="1">
                    <mxGeometry x="580" y="510" width="120" height="80" as="geometry"/>
                </mxCell>
                <mxCell id="17" value="authentifier" style="text;html=1;strokeColor=none;fillColor=none;align=center;verticalAlign=middle;whiteSpace=wrap;rounded=0;fontSize=18;" vertex="1" parent="1">
                    <mxGeometry x="610" y="535" width="60" height="30" as="geometry"/>
                </mxCell>
                <mxCell id="21" value="include" style="edgeStyle=none;html=1;exitX=1;exitY=0.5;exitDx=0;exitDy=0;fontSize=18;" edge="1" parent="1" source="18" target="15">
                    <mxGeometry relative="1" as="geometry"/>
                </mxCell>
                <mxCell id="18" value="" style="ellipse;whiteSpace=wrap;html=1;fontSize=18;" vertex="1" parent="1">
                    <mxGeometry x="305" y="630" width="165" height="80" as="geometry"/>
                </mxCell>
                <mxCell id="19" value="gerer les domandes de reservation" style="text;html=1;strokeColor=none;fillColor=none;align=center;verticalAlign=middle;whiteSpace=wrap;rounded=0;fontSize=18;" vertex="1" parent="1">
                    <mxGeometry x="330" y="655" width="115" height="30" as="geometry"/>
                </mxCell>
                <mxCell id="22" value="client" style="shape=umlActor;verticalLabelPosition=bottom;verticalAlign=top;html=1;outlineConnect=0;fontSize=18;" vertex="1" parent="1">
                    <mxGeometry x="40" y="330" width="30" height="60" as="geometry"/>
                </mxCell>
                <mxCell id="25" value="responsable" style="shape=umlActor;verticalLabelPosition=bottom;verticalAlign=top;html=1;outlineConnect=0;fontSize=18;" vertex="1" parent="1">
                    <mxGeometry x="40" y="550" width="30" height="60" as="geometry"/>
                </mxCell>
                <mxCell id="27" value="" style="endArrow=none;html=1;fontSize=18;entryX=0;entryY=0.5;entryDx=0;entryDy=0;" edge="1" parent="1" source="25" target="13">
                    <mxGeometry width="50" height="50" relative="1" as="geometry">
                        <mxPoint x="210" y="550" as="sourcePoint"/>
                        <mxPoint x="260" y="500" as="targetPoint"/>
                    </mxGeometry>
                </mxCell>
                <mxCell id="29" value="" style="endArrow=none;html=1;fontSize=18;entryX=0;entryY=0.5;entryDx=0;entryDy=0;" edge="1" parent="1" source="22" target="5">
                    <mxGeometry width="50" height="50" relative="1" as="geometry">
                        <mxPoint x="210" y="550" as="sourcePoint"/>
                        <mxPoint x="260" y="500" as="targetPoint"/>
                    </mxGeometry>
                </mxCell>
                <mxCell id="30" value="" style="endArrow=none;html=1;fontSize=18;entryX=0.019;entryY=0.595;entryDx=0;entryDy=0;entryPerimeter=0;" edge="1" parent="1" source="25" target="18">
                    <mxGeometry width="50" height="50" relative="1" as="geometry">
                        <mxPoint x="210" y="550" as="sourcePoint"/>
                        <mxPoint x="260" y="500" as="targetPoint"/>
                    </mxGeometry>
                </mxCell>
            </root>
        </mxGraphModel>
    </diagram>
</mxfile>